<?xml version="1.0" encoding="utf-8"?>
<svg width="512" height="512" viewBox="0 0 512 512" xmlns="http://www.w3.org/2000/svg">
  <defs>
    <!-- Premium Dark Gradient Background -->
    <linearGradient id="bgGradient" x1="0%" y1="0%" x2="100%" y2="100%">
      <stop offset="0%" style="stop-color:#1a1a2e;stop-opacity:1" />
      <stop offset="100%" style="stop-color:#16213e;stop-opacity:1" />
    </linearGradient>
    
    <!-- Vibrant Accent Gradient (vertical) -->
    <linearGradient id="accentGradient" x1="0%" y1="0%" x2="0%" y2="100%">
      <stop offset="0%" style="stop-color:#06d6a0;stop-opacity:1" />
      <stop offset="50%" style="stop-color:#118ab2;stop-opacity:1" />
      <stop offset="100%" style="stop-color:#7b2cbf;stop-opacity:1" />
    </linearGradient>
    
    <!-- Outer Glow Effect -->
    <filter id="glow" x="-50%" y="-50%" width="200%" height="200%">
      <feGaussianBlur stdDeviation="6" result="coloredBlur"/>
      <feMerge>
        <feMergeNode in="coloredBlur"/>
        <feMergeNode in="SourceGraphic"/>
      </feMerge>
    </filter>
    
    <!-- Subtle Drop Shadow -->
    <filter id="shadow" x="-20%" y="-20%" width="140%" height="140%">
      <feDropShadow dx="0" dy="4" stdDeviation="10" flood-color="#000000" flood-opacity="0.3"/>
    </filter>
  </defs>

  <!-- Background Container with Rounded Corners -->
  <rect x="24" y="24" width="464" height="464" rx="96" fill="url(#bgGradient)" filter="url(#shadow)"/>
  
  <!-- Subtle Border Ring -->
  <rect x="24" y="24" width="464" height="464" rx="96" fill="none" stroke="url(#accentGradient)" stroke-width="3" opacity="0.4"/>

  <!-- Rebuilt, unified Kadence "K" -->
  <g filter="url(#glow)">
    <!-- Single sculpted K shape using negative space logic -->
    <path
      d="
        M 120 116
        L 160 116
        L 160 220
        L 230 160
        Q 244 148 262 148
        L 292 148
        L 292 188
        Q 276 188 266 196
        L 200 252
        L 270 320
        Q 284 334 304 334
        L 332 334
        L 332 374
        L 296 374
        Q 270 374 252 356
        L 180 286
        L 160 304
        L 160 396
        L 120 396
        Z
      "
      fill="url(#accentGradient)"
    />

    <!-- Accent rhythm bars to the right -->
    <rect x="320" y="196" width="24" height="120" rx="12" fill="#06d6a0" opacity="0.9"/>
    <rect x="360" y="161" width="24" height="190" rx="12" fill="#118ab2" opacity="0.85"/>
    <rect x="400" y="216" width="24" height="80" rx="12" fill="#7b2cbf" opacity="0.8"/>
  </g>
  
  <!-- Small accent dots for visual interest -->
  <circle cx="420" cy="100" r="8" fill="#06d6a0" opacity="0.6"/>
  <circle cx="100" cy="420" r="6" fill="#7b2cbf" opacity="0.5"/>
</svg>
